<svg id="visual" viewBox="0 0 900 600" width="900" height="600" xmlns="http://www.w3.org/2000/svg" xmlns:xlink="http://www.w3.org/1999/xlink" version="1.1"><rect x="0" y="0" width="900" height="600" fill="#080846"></rect><path d="M0 246L21.5 247.8C43 249.7 86 253.3 128.8 255.3C171.7 257.3 214.3 257.7 257.2 261.2C300 264.7 343 271.3 385.8 281.7C428.7 292 471.3 306 514.2 295.3C557 284.7 600 249.3 642.8 249.8C685.7 250.3 728.3 286.7 771.2 296C814 305.3 857 287.7 878.5 278.8L900 270L900 601L878.5 601C857 601 814 601 771.2 601C728.3 601 685.7 601 642.8 601C600 601 557 601 514.2 601C471.3 601 428.7 601 385.8 601C343 601 300 601 257.2 601C214.3 601 171.7 601 128.8 601C86 601 43 601 21.5 601L0 601Z" fill="#610c9f"></path><path d="M0 328L21.5 333.2C43 338.3 86 348.7 128.8 349.7C171.7 350.7 214.3 342.3 257.2 338.7C300 335 343 336 385.8 331.8C428.7 327.7 471.3 318.3 514.2 318.7C557 319 600 329 642.8 330.3C685.7 331.7 728.3 324.3 771.2 317.8C814 311.3 857 305.7 878.5 302.8L900 300L900 601L878.5 601C857 601 814 601 771.2 601C728.3 601 685.7 601 642.8 601C600 601 557 601 514.2 601C471.3 601 428.7 601 385.8 601C343 601 300 601 257.2 601C214.3 601 171.7 601 128.8 601C86 601 43 601 21.5 601L0 601Z" fill="#6221a3"></path><path d="M0 309L21.5 308.7C43 308.3 86 307.7 128.8 312.8C171.7 318 214.3 329 257.2 330.3C300 331.7 343 323.3 385.8 328C428.7 332.7 471.3 350.3 514.2 351.3C557 352.3 600 336.7 642.8 338.8C685.7 341 728.3 361 771.2 370.8C814 380.7 857 380.3 878.5 380.2L900 380L900 601L878.5 601C857 601 814 601 771.2 601C728.3 601 685.7 601 642.8 601C600 601 557 601 514.2 601C471.3 601 428.7 601 385.8 601C343 601 300 601 257.2 601C214.3 601 171.7 601 128.8 601C86 601 43 601 21.5 601L0 601Z" fill="#632fa7"></path><path d="M0 379L21.5 385.7C43 392.3 86 405.7 128.8 398.2C171.7 390.7 214.3 362.3 257.2 363.2C300 364 343 394 385.8 392.2C428.7 390.3 471.3 356.7 514.2 343.7C557 330.7 600 338.3 642.8 338.2C685.7 338 728.3 330 771.2 327C814 324 857 326 878.5 327L900 328L900 601L878.5 601C857 601 814 601 771.2 601C728.3 601 685.7 601 642.8 601C600 601 557 601 514.2 601C471.3 601 428.7 601 385.8 601C343 601 300 601 257.2 601C214.3 601 171.7 601 128.8 601C86 601 43 601 21.5 601L0 601Z" fill="#653bab"></path><path d="M0 449L21.5 446.5C43 444 86 439 128.8 434.8C171.7 430.7 214.3 427.3 257.2 429.8C300 432.3 343 440.7 385.8 432.2C428.7 423.7 471.3 398.3 514.2 389.5C557 380.7 600 388.3 642.8 398.3C685.7 408.3 728.3 420.7 771.2 424.7C814 428.7 857 424.3 878.5 422.2L900 420L900 601L878.5 601C857 601 814 601 771.2 601C728.3 601 685.7 601 642.8 601C600 601 557 601 514.2 601C471.3 601 428.7 601 385.8 601C343 601 300 601 257.2 601C214.3 601 171.7 601 128.8 601C86 601 43 601 21.5 601L0 601Z" fill="#6745ae"></path><path d="M0 434L21.5 430C43 426 86 418 128.8 425.3C171.7 432.7 214.3 455.3 257.2 466C300 476.7 343 475.3 385.8 470.2C428.7 465 471.3 456 514.2 457.7C557 459.3 600 471.7 642.8 467.8C685.7 464 728.3 444 771.2 439.2C814 434.3 857 444.7 878.5 449.8L900 455L900 601L878.5 601C857 601 814 601 771.2 601C728.3 601 685.7 601 642.8 601C600 601 557 601 514.2 601C471.3 601 428.7 601 385.8 601C343 601 300 601 257.2 601C214.3 601 171.7 601 128.8 601C86 601 43 601 21.5 601L0 601Z" fill="#6a4fb1"></path><path d="M0 499L21.5 492.8C43 486.7 86 474.3 128.8 476C171.7 477.7 214.3 493.3 257.2 492.5C300 491.7 343 474.3 385.8 465.2C428.7 456 471.3 455 514.2 464C557 473 600 492 642.8 491.7C685.7 491.3 728.3 471.7 771.2 466.2C814 460.7 857 469.3 878.5 473.7L900 478L900 601L878.5 601C857 601 814 601 771.2 601C728.3 601 685.7 601 642.8 601C600 601 557 601 514.2 601C471.3 601 428.7 601 385.8 601C343 601 300 601 257.2 601C214.3 601 171.7 601 128.8 601C86 601 43 601 21.5 601L0 601Z" fill="#6d58b3"></path><path d="M0 502L21.5 499.2C43 496.3 86 490.7 128.8 493.5C171.7 496.3 214.3 507.7 257.2 514.3C300 521 343 523 385.8 525.5C428.7 528 471.3 531 514.2 525.3C557 519.7 600 505.3 642.8 503.2C685.7 501 728.3 511 771.2 518.7C814 526.3 857 531.7 878.5 534.3L900 537L900 601L878.5 601C857 601 814 601 771.2 601C728.3 601 685.7 601 642.8 601C600 601 557 601 514.2 601C471.3 601 428.7 601 385.8 601C343 601 300 601 257.2 601C214.3 601 171.7 601 128.8 601C86 601 43 601 21.5 601L0 601Z" fill="#7161b5"></path><path d="M0 575L21.5 573.8C43 572.7 86 570.3 128.8 568.3C171.7 566.3 214.3 564.7 257.2 565.3C300 566 343 569 385.8 566C428.7 563 471.3 554 514.2 550.8C557 547.7 600 550.3 642.8 553.8C685.7 557.3 728.3 561.7 771.2 562.7C814 563.7 857 561.3 878.5 560.2L900 559L900 601L878.5 601C857 601 814 601 771.2 601C728.3 601 685.7 601 642.8 601C600 601 557 601 514.2 601C471.3 601 428.7 601 385.8 601C343 601 300 601 257.2 601C214.3 601 171.7 601 128.8 601C86 601 43 601 21.5 601L0 601Z" fill="#756ab6"></path></svg>