<svg id="visual" viewBox="0 0 900 600" width="900" height="600" xmlns="http://www.w3.org/2000/svg" xmlns:xlink="http://www.w3.org/1999/xlink" version="1.1"><rect x="0" y="0" width="900" height="600" fill="#080846"></rect><path d="M0 211L21.5 213C43 215 86 219 128.8 233.3C171.7 247.7 214.3 272.3 257.2 286.5C300 300.7 343 304.3 385.8 293.8C428.7 283.3 471.3 258.7 514.2 247.5C557 236.3 600 238.7 642.8 243.7C685.7 248.7 728.3 256.3 771.2 261.5C814 266.7 857 269.3 878.5 270.7L900 272L900 601L878.5 601C857 601 814 601 771.2 601C728.3 601 685.7 601 642.8 601C600 601 557 601 514.2 601C471.3 601 428.7 601 385.8 601C343 601 300 601 257.2 601C214.3 601 171.7 601 128.8 601C86 601 43 601 21.5 601L0 601Z" fill="#610c9f"></path><path d="M0 250L21.5 250C43 250 86 250 128.8 255.7C171.7 261.3 214.3 272.7 257.2 289.2C300 305.7 343 327.3 385.8 322.8C428.7 318.3 471.3 287.7 514.2 279.5C557 271.3 600 285.7 642.8 293.8C685.7 302 728.3 304 771.2 296.8C814 289.7 857 273.3 878.5 265.2L900 257L900 601L878.5 601C857 601 814 601 771.2 601C728.3 601 685.7 601 642.8 601C600 601 557 601 514.2 601C471.3 601 428.7 601 385.8 601C343 601 300 601 257.2 601C214.3 601 171.7 601 128.8 601C86 601 43 601 21.5 601L0 601Z" fill="#6221a3"></path><path d="M0 352L21.5 340.3C43 328.7 86 305.3 128.8 297.7C171.7 290 214.3 298 257.2 312.2C300 326.3 343 346.7 385.8 350C428.7 353.3 471.3 339.7 514.2 328.8C557 318 600 310 642.8 310.7C685.7 311.3 728.3 320.7 771.2 336C814 351.3 857 372.7 878.5 383.3L900 394L900 601L878.5 601C857 601 814 601 771.2 601C728.3 601 685.7 601 642.8 601C600 601 557 601 514.2 601C471.3 601 428.7 601 385.8 601C343 601 300 601 257.2 601C214.3 601 171.7 601 128.8 601C86 601 43 601 21.5 601L0 601Z" fill="#632fa7"></path><path d="M0 388L21.5 386.2C43 384.3 86 380.7 128.8 386.5C171.7 392.3 214.3 407.7 257.2 399C300 390.3 343 357.7 385.8 348.7C428.7 339.7 471.3 354.3 514.2 356.5C557 358.7 600 348.3 642.8 353.8C685.7 359.3 728.3 380.7 771.2 382.3C814 384 857 366 878.5 357L900 348L900 601L878.5 601C857 601 814 601 771.2 601C728.3 601 685.7 601 642.8 601C600 601 557 601 514.2 601C471.3 601 428.7 601 385.8 601C343 601 300 601 257.2 601C214.3 601 171.7 601 128.8 601C86 601 43 601 21.5 601L0 601Z" fill="#653bab"></path><path d="M0 416L21.5 418.3C43 420.7 86 425.3 128.8 424.8C171.7 424.3 214.3 418.7 257.2 409.2C300 399.7 343 386.3 385.8 379.8C428.7 373.3 471.3 373.7 514.2 372.8C557 372 600 370 642.8 382C685.7 394 728.3 420 771.2 420.7C814 421.3 857 396.7 878.5 384.3L900 372L900 601L878.5 601C857 601 814 601 771.2 601C728.3 601 685.7 601 642.8 601C600 601 557 601 514.2 601C471.3 601 428.7 601 385.8 601C343 601 300 601 257.2 601C214.3 601 171.7 601 128.8 601C86 601 43 601 21.5 601L0 601Z" fill="#6745ae"></path><path d="M0 442L21.5 435.7C43 429.3 86 416.7 128.8 421.3C171.7 426 214.3 448 257.2 453.2C300 458.3 343 446.7 385.8 442.2C428.7 437.7 471.3 440.3 514.2 437.5C557 434.7 600 426.3 642.8 424.8C685.7 423.3 728.3 428.7 771.2 430.7C814 432.7 857 431.3 878.5 430.7L900 430L900 601L878.5 601C857 601 814 601 771.2 601C728.3 601 685.7 601 642.8 601C600 601 557 601 514.2 601C471.3 601 428.7 601 385.8 601C343 601 300 601 257.2 601C214.3 601 171.7 601 128.8 601C86 601 43 601 21.5 601L0 601Z" fill="#6a4fb1"></path><path d="M0 451L21.5 454.5C43 458 86 465 128.8 474.3C171.7 483.7 214.3 495.3 257.2 493.5C300 491.7 343 476.3 385.8 466.5C428.7 456.7 471.3 452.3 514.2 460.8C557 469.3 600 490.7 642.8 501.5C685.7 512.3 728.3 512.7 771.2 502.2C814 491.7 857 470.3 878.5 459.7L900 449L900 601L878.5 601C857 601 814 601 771.2 601C728.3 601 685.7 601 642.8 601C600 601 557 601 514.2 601C471.3 601 428.7 601 385.8 601C343 601 300 601 257.2 601C214.3 601 171.7 601 128.8 601C86 601 43 601 21.5 601L0 601Z" fill="#6d58b3"></path><path d="M0 486L21.5 492.8C43 499.7 86 513.3 128.8 522.2C171.7 531 214.3 535 257.2 528.2C300 521.3 343 503.7 385.8 497.5C428.7 491.3 471.3 496.7 514.2 499.3C557 502 600 502 642.8 508.5C685.7 515 728.3 528 771.2 530.2C814 532.3 857 523.7 878.5 519.3L900 515L900 601L878.5 601C857 601 814 601 771.2 601C728.3 601 685.7 601 642.8 601C600 601 557 601 514.2 601C471.3 601 428.7 601 385.8 601C343 601 300 601 257.2 601C214.3 601 171.7 601 128.8 601C86 601 43 601 21.5 601L0 601Z" fill="#7161b5"></path><path d="M0 539L21.5 542C43 545 86 551 128.8 551.7C171.7 552.3 214.3 547.7 257.2 545.5C300 543.3 343 543.7 385.8 542.7C428.7 541.7 471.3 539.3 514.2 542.7C557 546 600 555 642.8 558.3C685.7 561.7 728.3 559.3 771.2 560.8C814 562.3 857 567.7 878.5 570.3L900 573L900 601L878.5 601C857 601 814 601 771.2 601C728.3 601 685.7 601 642.8 601C600 601 557 601 514.2 601C471.3 601 428.7 601 385.8 601C343 601 300 601 257.2 601C214.3 601 171.7 601 128.8 601C86 601 43 601 21.5 601L0 601Z" fill="#756ab6"></path></svg>